<?xml version="1.0" encoding="UTF-8"?>
<svg id="Calque_2" data-name="Calque 2" xmlns="http://www.w3.org/2000/svg" viewBox="0 0 70.11 67.42">
  <defs>
    <style>
      .cls-1 {
        fill: none;
      }

      .cls-1, .cls-2 {
        stroke: #1d1d1b;
        stroke-miterlimit: 10;
      }

      .cls-3, .cls-2 {
        fill: #1d1d1b;
      }
    </style>
  </defs>
  <g id="Calque_7" data-name="Calque 7">
    <g>
      <path class="cls-2" d="M32.77,18.66l-21.42,19.87c-.54.5-.85,1.21-.85,1.95l.08,23.29c0,.6.21,1.18.58,1.64h0c.5.63,1.26.99,2.07.99h12.34c.72,0,1.41-.29,1.91-.81h0c.82-.85,1.28-1.99,1.28-3.17v-13.9c0-.73.3-1.43.83-1.93h0c1.39-1.31,3.24-2.04,5.15-2.04h0c2.45,0,3.83-.39,5.96,1.84h0c.5.64,1.08,1.39,1.08,2.2v14.16c0,1.75.46,3.22,1.92,4.18h13.75c.96-.1,1.59-.11,1.98-1,.24-.55.18-.91.18-2.24v-22.9c0-.72-.29-1.41-.82-1.91l-21.12-20.22"/>
      <path class="cls-1" d="M32.07,19.3l2.33-2.14c.47-.39,1.14-.39,1.61,0l2.33,2.14"/>
      <path class="cls-3" d="M32.75,19.83v.42c-.01.34.06.67.22.96.1.31.27.58.52.8.23.24.49.42.8.52.3.16.62.23.96.22l.66-.09c.42-.12.79-.33,1.1-.64l.39-.51c.23-.39.34-.81.34-1.26v-.42c.01-.34-.06-.67-.22-.96-.1-.31-.27-.58-.52-.8-.23-.24-.49-.42-.8-.52-.3-.16-.62-.23-.96-.22l-.66.09c-.42.12-.79.33-1.1.64l-.39.51c-.23.39-.34.81-.34,1.26h0Z"/>
      <rect class="cls-2" x="50.68" y="4.59" width="6.69" height="18.77" rx="2.79" ry="2.79"/>
      <rect class="cls-2" x="15.97" y="-5.26" width="8.09" height="50.6" rx="2.99" ry="2.99" transform="translate(19.99 48.35) rotate(-135)"/>
      <rect class="cls-2" x="46.03" y="-5.26" width="8.09" height="50.6" rx="2.93" ry="2.93" transform="translate(99.65 -1.2) rotate(135)"/>
    </g>
  </g>
</svg>